<svg width="100" height="100" viewBox="0 0 100 100" fill="none" xmlns="http://www.w3.org/2000/svg">
<circle cx="50" cy="50" r="50" fill="black"/>
<path fill-rule="evenodd" clip-rule="evenodd" d="M72.3976 28.7924C72.6474 28.5068 72.8385 28.1747 72.96 27.8152C73.0814 27.4557 73.1309 27.0758 73.1056 26.6972C73.0802 26.3185 72.9805 25.9486 72.8122 25.6085C72.6439 25.2684 72.4102 24.9648 72.1246 24.715C71.8389 24.4652 71.5068 24.2741 71.1473 24.1526C70.7878 24.0311 70.4078 23.9816 70.0292 24.007C69.6505 24.0323 69.2806 24.132 68.9405 24.3003C68.6003 24.4686 68.2967 24.7023 68.0469 24.988L53.2847 41.8583L40.7556 25.1555C40.4865 24.7967 40.1375 24.5055 39.7364 24.305C39.3353 24.1044 38.8929 24 38.4444 24H26.8889C26.3524 24 25.8265 24.1494 25.3701 24.4314C24.9137 24.7135 24.5449 25.117 24.305 25.5969C24.0651 26.0767 23.9635 26.6139 24.0117 27.1482C24.0599 27.6825 24.2559 28.1928 24.5778 28.622L43.1736 53.4133L27.6024 71.2081C27.3526 71.4937 27.1615 71.8258 27.04 72.1853C26.9186 72.5448 26.8691 72.9247 26.8944 73.3034C26.9198 73.682 27.0195 74.0519 27.1878 74.392C27.3561 74.7321 27.5898 75.0358 27.8754 75.2856C28.1611 75.5354 28.4932 75.7265 28.8527 75.8479C29.2122 75.9694 29.5922 76.0189 29.9708 75.9935C30.3495 75.9682 30.7194 75.8685 31.0595 75.7002C31.3997 75.5319 31.7033 75.2982 31.9531 75.0126L46.7153 58.1393L59.2444 74.8421C59.5135 75.2009 59.8625 75.4921 60.2636 75.6927C60.6647 75.8932 61.1071 75.9976 61.5556 75.9976H73.1111C73.6476 75.9976 74.1735 75.8483 74.6299 75.5662C75.0863 75.2842 75.4551 74.8806 75.695 74.4008C75.9349 73.9209 76.0365 73.3838 75.9883 72.8495C75.9401 72.3151 75.7441 71.8048 75.4222 71.3756L56.8264 46.5843L72.3976 28.7924ZM63 70.2201L32.6667 29.7775H37L67.3333 70.2201H63Z" fill="white"/>
</svg>
